<svg width="22" height="13" viewBox="0 0 22 13" fill="none" xmlns="http://www.w3.org/2000/svg">
<path d="M13 4.4427V3.1626C13.55 2.9869 14.1125 2.85512 14.6875 2.76728C15.2625 2.67943 15.8667 2.6355 16.5 2.6355C16.9333 2.6355 17.3583 2.6606 17.775 2.7108C18.1917 2.761 18.6 2.82375 19 2.89905V4.10385C18.6 3.9909 18.1958 3.90619 17.7875 3.84971C17.3792 3.79324 16.95 3.765 16.5 3.765C15.8667 3.765 15.2583 3.82461 14.675 3.94384C14.0917 4.06306 13.5333 4.22935 13 4.4427ZM13 8.5842V7.3041C13.55 7.1284 14.1125 6.99662 14.6875 6.90877C15.2625 6.82093 15.8667 6.777 16.5 6.777C16.9333 6.777 17.3583 6.8021 17.775 6.8523C18.1917 6.9025 18.6 6.96525 19 7.04055V8.24535C18.6 8.1324 18.1958 8.04769 17.7875 7.99121C17.3792 7.93474 16.95 7.9065 16.5 7.9065C15.8667 7.9065 15.2583 7.96298 14.675 8.07592C14.0917 8.18888 13.5333 8.3583 13 8.5842ZM13 6.51345V5.23335C13.55 5.05765 14.1125 4.92588 14.6875 4.83803C15.2625 4.75017 15.8667 4.70625 16.5 4.70625C16.9333 4.70625 17.3583 4.73135 17.775 4.78155C18.1917 4.83175 18.6 4.8945 19 4.9698V6.1746C18.6 6.06165 18.1958 5.97694 17.7875 5.92046C17.3792 5.86399 16.95 5.83575 16.5 5.83575C15.8667 5.83575 15.2583 5.89536 14.675 6.01459C14.0917 6.13381 13.5333 6.3001 13 6.51345ZM5.5 9.036C6.28333 9.036 7.04583 9.10189 7.7875 9.23366C8.52917 9.36544 9.26667 9.5631 10 9.82665V2.4096C9.31667 2.1084 8.59167 1.8825 7.825 1.7319C7.05833 1.5813 6.28333 1.506 5.5 1.506C4.9 1.506 4.30417 1.54992 3.7125 1.63778C3.12083 1.72563 2.55 1.8574 2 2.0331V9.4878C2.58333 9.3372 3.1625 9.22425 3.7375 9.14895C4.3125 9.07365 4.9 9.036 5.5 9.036ZM12 9.82665C12.7333 9.5631 13.4708 9.36544 14.2125 9.23366C14.9542 9.10189 15.7167 9.036 16.5 9.036C17.1 9.036 17.6875 9.07365 18.2625 9.14895C18.8375 9.22425 19.4167 9.3372 20 9.4878V2.0331C19.45 1.8574 18.8792 1.72563 18.2875 1.63778C17.6958 1.54992 17.1 1.506 16.5 1.506C15.7167 1.506 14.9417 1.5813 14.175 1.7319C13.4083 1.8825 12.6833 2.1084 12 2.4096V9.82665ZM11 12.048C10.2 11.5711 9.33333 11.2009 8.4 10.9373C7.46667 10.6738 6.5 10.542 5.5 10.542C4.8 10.542 4.1125 10.611 3.4375 10.7491C2.7625 10.8871 2.11667 11.0816 1.5 11.3327C1.15 11.4707 0.8125 11.4644 0.4875 11.3138C0.1625 11.1632 0 10.9436 0 10.655V1.5813C0 1.44325 0.0458333 1.31148 0.1375 1.18597C0.229167 1.06047 0.366667 0.96635 0.55 0.9036C1.31667 0.6024 2.11667 0.3765 2.95 0.2259C3.78333 0.0753 4.63333 0 5.5 0C6.46667 0 7.4125 0.094125 8.3375 0.282375C9.2625 0.470625 10.15 0.753 11 1.1295C11.85 0.753 12.7375 0.470625 13.6625 0.282375C14.5875 0.094125 15.5333 0 16.5 0C17.3667 0 18.2167 0.0753 19.05 0.2259C19.8833 0.3765 20.6833 0.6024 21.45 0.9036C21.6333 0.96635 21.7708 1.06047 21.8625 1.18597C21.9542 1.31148 22 1.44325 22 1.5813V10.655C22 10.9436 21.8375 11.1632 21.5125 11.3138C21.1875 11.4644 20.85 11.4707 20.5 11.3327C19.8833 11.0816 19.2375 10.8871 18.5625 10.7491C17.8875 10.611 17.2 10.542 16.5 10.542C15.5 10.542 14.5333 10.6738 13.6 10.9373C12.6667 11.2009 11.8 11.5711 11 12.048Z" fill="url(#paint0_linear_10_459)"/>
<defs>
<linearGradient id="paint0_linear_10_459" x1="11" y1="0" x2="11" y2="12.048" gradientUnits="userSpaceOnUse">
<stop stop-color="#6017D7"/>
<stop offset="1" stop-color="#A269FF"/>
</linearGradient>
</defs>
</svg>
