<svg width="23" height="16" viewBox="0 0 23 16" fill="none" xmlns="http://www.w3.org/2000/svg">
<path d="M10.9 15.06L15.45 6.024H17.55L22.1 15.06H20L18.925 12.7634H14.075L13 15.06H10.9ZM3 12.801L1.6 11.7468L6.65 7.94415C6.06667 7.5049 5.5375 7.0029 5.0625 6.43815C4.5875 5.8734 4.15 5.23335 3.75 4.518H5.85C6.18333 5.00745 6.51667 5.43415 6.85 5.7981C7.18333 6.16205 7.58333 6.526 8.05 6.88995C8.6 6.4758 9.17083 5.89536 9.7625 5.14864C10.3542 4.40191 10.8 3.6897 11.1 3.012H0V1.506H7V0H9V1.506H16V3.012H13.1C12.75 3.9156 12.225 4.8443 11.525 5.7981C10.825 6.7519 10.1333 7.4798 9.45 7.9818L11.85 9.82665L11.1 11.3703L8.05 9.01717L3 12.801ZM14.7 11.4456H18.3L16.5 7.6053L14.7 11.4456Z" fill="url(#paint0_linear_10_457)"/>
<defs>
<linearGradient id="paint0_linear_10_457" x1="11.05" y1="0" x2="11.05" y2="15.06" gradientUnits="userSpaceOnUse">
<stop stop-color="#6017D7"/>
<stop offset="1" stop-color="#A269FF"/>
</linearGradient>
</defs>
</svg>
