<svg width="170" height="39" viewBox="0 0 170 39" fill="none" xmlns="http://www.w3.org/2000/svg">
<path d="M16.704 2.39999C20.256 2.39999 23.408 3.11999 26.16 4.55999C28.944 5.96799 31.104 7.95199 32.64 10.512C34.176 13.04 34.944 15.936 34.944 19.2C34.944 22.464 34.176 25.376 32.64 27.936C31.104 30.464 28.944 32.448 26.16 33.888C23.408 35.296 20.256 36 16.704 36H0.624023V35.04H5.71202V3.35999H0.624023V2.39999H16.704ZM16.704 35.04C18.976 35.04 20.896 34.464 22.464 33.312C24.032 32.128 25.216 30.352 26.016 27.984C26.848 25.616 27.264 22.688 27.264 19.2C27.264 15.68 26.848 12.752 26.016 10.416C25.216 8.04799 24.032 6.28799 22.464 5.13599C20.896 3.95199 18.976 3.35999 16.704 3.35999H13.056V35.04H16.704Z" fill="#1A1A1A"/>
<path d="M61.1719 34.944C60.3399 35.264 59.2039 35.568 57.7639 35.856C56.9319 36.048 56.0839 36.192 55.2199 36.288C54.3879 36.416 53.5399 36.48 52.6759 36.48C50.1159 36.48 47.8119 35.968 45.7639 34.944C43.7159 33.888 42.1319 32.416 41.0119 30.528C39.8919 28.608 39.3319 26.432 39.3319 24C39.3319 21.6 39.8759 19.456 40.9639 17.568C42.0519 15.648 43.5559 14.16 45.4759 13.104C47.4279 12.048 49.6359 11.52 52.0999 11.52C54.6279 11.52 56.8359 12.048 58.7239 13.104C60.6119 14.128 62.0679 15.584 63.0919 17.472C64.1479 19.328 64.7079 21.488 64.7719 23.952C64.7719 24.016 64.7719 24.096 64.7719 24.192C64.7719 24.288 64.7719 24.384 64.7719 24.48H45.8119C45.8439 26.848 46.1319 28.88 46.6759 30.576C47.2519 32.272 48.0199 33.552 48.9799 34.416C49.9399 35.28 51.0279 35.712 52.2439 35.712C53.3959 35.712 54.6759 35.296 56.0839 34.464C57.5239 33.632 58.7399 32.624 59.7319 31.44C60.7559 30.224 61.2679 29.136 61.2679 28.176V27.408H62.1319V38.064H61.1719V34.944ZM58.3399 23.52C58.3079 21.024 58.0359 18.944 57.5239 17.28C57.0439 15.584 56.3399 14.336 55.4119 13.536C54.5159 12.704 53.4119 12.288 52.0999 12.288C50.8199 12.288 49.7159 12.736 48.7879 13.632C47.8599 14.496 47.1399 15.776 46.6279 17.472C46.1159 19.136 45.8439 21.152 45.8119 23.52H58.3399Z" fill="#1A1A1A"/>
<path d="M67.5582 35.04H72.0221V12.96H67.5582V12H78.1661V17.04C78.8061 15.28 79.7501 13.92 80.9981 12.96C82.2461 12 83.6862 11.52 85.3182 11.52C86.2462 11.52 87.1581 11.712 88.0541 12.096C88.3101 12.192 88.5662 12.304 88.8222 12.432C89.0782 12.56 89.3341 12.688 89.5901 12.816V9.02399H90.5501V21.936H89.7342V20.496C89.7342 19.504 89.3661 18.464 88.6301 17.376C87.8941 16.288 86.9981 15.376 85.9421 14.64C84.8861 13.872 83.9261 13.488 83.0621 13.488C82.1661 13.488 81.3502 13.888 80.6142 14.688C79.8782 15.456 79.2861 16.56 78.8382 18C78.3902 19.44 78.1661 21.136 78.1661 23.088V35.04H84.2621V36H67.5582V35.04Z" fill="#1A1A1A"/>
<path d="M92.8707 35.04H97.6227V12.96H92.8707V12H103.767V35.04H108.519V36H92.8707V35.04ZM96.6627 0.23999H104.535L100.839 9.26399H100.359L96.6627 0.23999Z" fill="#1A1A1A"/>
<path d="M132.508 34.944C131.676 35.264 130.54 35.568 129.1 35.856C128.268 36.048 127.436 36.192 126.604 36.288C125.772 36.416 124.924 36.48 124.06 36.48C121.532 36.48 119.276 35.952 117.292 34.896C115.308 33.808 113.756 32.32 112.636 30.432C111.548 28.544 111.004 26.4 111.004 24C111.004 21.6 111.548 19.456 112.636 17.568C113.756 15.68 115.308 14.208 117.292 13.152C119.276 12.064 121.532 11.52 124.06 11.52C125.404 11.52 126.86 11.696 128.428 12.048C129.676 12.304 130.748 12.592 131.644 12.912V9.40799H132.604V21.504H131.692V20.208C131.692 19.184 131.26 18.048 130.396 16.8C129.532 15.552 128.476 14.496 127.228 13.632C126.012 12.736 124.908 12.288 123.916 12.288C122.604 12.288 121.452 12.736 120.46 13.632C119.5 14.496 118.764 15.808 118.252 17.568C117.74 19.296 117.484 21.44 117.484 24C117.484 26.56 117.74 28.704 118.252 30.432C118.764 32.16 119.5 33.472 120.46 34.368C121.452 35.232 122.604 35.664 123.916 35.664C125.036 35.664 126.268 35.232 127.612 34.368C128.956 33.472 130.108 32.384 131.068 31.104C132.028 29.824 132.54 28.624 132.604 27.504V26.16H133.468V38.064H132.508V34.944Z" fill="#1A1A1A"/>
<path d="M137.355 35.04H141.819V3.35999H137.355V2.39999H147.963V23.52H150.315L159.963 12.96H154.395V12H165.531V12.96H161.259L154.779 20.064L164.955 35.04H169.131V36H153.723V35.04H157.899L150.411 24.48H147.963V35.04H151.947V36H137.355V35.04Z" fill="#1A1A1A"/>
</svg>
